<svg width="146" height="32" viewBox="0 0 146 32" fill="none" xmlns="http://www.w3.org/2000/svg">
<path d="M1 20L1 12" stroke="#89C3E3" stroke-width="2" stroke-linecap="round"/>
<path d="M5 22L5 10" stroke="#89C3E3" stroke-width="2" stroke-linecap="round"/>
<path d="M9 19L9 13" stroke="#89C3E3" stroke-width="2" stroke-linecap="round"/>
<path d="M13 20L13 12" stroke="#89C3E3" stroke-width="2" stroke-linecap="round"/>
<path d="M17 22L17 10" stroke="#89C3E3" stroke-width="2" stroke-linecap="round"/>
<path d="M21 19L21 13" stroke="#89C3E3" stroke-width="2" stroke-linecap="round"/>
<path d="M25 20L25 12" stroke="#89C3E3" stroke-width="2" stroke-linecap="round"/>
<path d="M29 22L29 10" stroke="#89C3E3" stroke-width="2" stroke-linecap="round"/>
<path d="M33 19L33 13" stroke="#89C3E3" stroke-width="2" stroke-linecap="round"/>
<path d="M37 20L37 12" stroke="#89C3E3" stroke-width="2" stroke-linecap="round"/>
<path d="M41 22L41 10" stroke="#89C3E3" stroke-width="2" stroke-linecap="round"/>
<path d="M45 19L45 13" stroke="#89C3E3" stroke-width="2" stroke-linecap="round"/>
<path d="M49 20L49 12" stroke="#89C3E3" stroke-width="2" stroke-linecap="round"/>
<path d="M53 22L53 10" stroke="#89C3E3" stroke-width="2" stroke-linecap="round"/>
<path d="M57 19L57 13" stroke="#89C3E3" stroke-width="2" stroke-linecap="round"/>
<path d="M61 20L61 12" stroke="#89C3E3" stroke-width="2" stroke-linecap="round"/>
<path d="M65 22L65 10" stroke="#89C3E3" stroke-width="2" stroke-linecap="round"/>
<path d="M69 19L69 13" stroke="#89C3E3" stroke-width="2" stroke-linecap="round"/>
<path d="M73 20L73 12" stroke="#89C3E3" stroke-width="2" stroke-linecap="round"/>
<path d="M77 22L77 10" stroke="#89C3E3" stroke-width="2" stroke-linecap="round"/>
<path d="M81 19L81 13" stroke="#89C3E3" stroke-width="2" stroke-linecap="round"/>
<path d="M85 20L85 12" stroke="#89C3E3" stroke-width="2" stroke-linecap="round"/>
<path d="M89 22L89 10" stroke="#89C3E3" stroke-width="2" stroke-linecap="round"/>
<path d="M93 19L93 13" stroke="#89C3E3" stroke-width="2" stroke-linecap="round"/>
<path d="M97 20L97 12" stroke="#89C3E3" stroke-width="2" stroke-linecap="round"/>
<path d="M101 22L101 10" stroke="#89C3E3" stroke-width="2" stroke-linecap="round"/>
<path d="M105 19L105 13" stroke="#89C3E3" stroke-width="2" stroke-linecap="round"/>
<path d="M109 20L109 12" stroke="#89C3E3" stroke-width="2" stroke-linecap="round"/>
<path d="M113 22L113 10" stroke="#89C3E3" stroke-width="2" stroke-linecap="round"/>
<path d="M117 19L117 13" stroke="#89C3E3" stroke-width="2" stroke-linecap="round"/>
<path d="M121 20L121 12" stroke="#89C3E3" stroke-width="2" stroke-linecap="round"/>
<path d="M125 22L125 10" stroke="#89C3E3" stroke-width="2" stroke-linecap="round"/>
<path d="M129 19L129 13" stroke="#89C3E3" stroke-width="2" stroke-linecap="round"/>
<path d="M133 20L133 12" stroke="#89C3E3" stroke-width="2" stroke-linecap="round"/>
<path d="M137 22L137 10" stroke="#89C3E3" stroke-width="2" stroke-linecap="round"/>
<path d="M141 19L141 13" stroke="#89C3E3" stroke-width="2" stroke-linecap="round"/>
<path d="M145 20L145 12" stroke="#89C3E3" stroke-width="2" stroke-linecap="round"/>
</svg>
